<svg width="395" height="531" viewBox="0 0 395 531" fill="none" xmlns="http://www.w3.org/2000/svg">
<g clip-path="url(#clip0_1084_5266)">
<path d="M71.7215 289.302C85.5452 270.884 107.599 255.2 125.591 240.778C148.846 222.14 174.97 199.706 206.406 200.586C208.601 200.643 211.795 200.298 214.153 200.165C224.714 199.532 235.272 198.832 245.824 198.065L282.568 195.377C288.571 194.937 295.255 194.201 301.129 194.209C310.103 194.221 314.94 201.196 315.809 209.491C316.447 215.573 315.671 220.578 311.72 225.625C306.564 232.198 298.186 235.081 290.111 235.823C267.163 238.596 244.175 240.986 221.248 243.826C218.298 244.192 209.47 244.621 207.494 245.683C201.999 248.636 194.508 254.655 189.363 258.485C212.112 267.099 244.089 272.077 249.615 301.272C250.617 306.57 249.533 311.184 247.195 315.957C261.56 326.926 261.42 336.093 259.087 352.636C283.079 368.526 264.755 399.301 248.032 412.607C240.977 418.22 234.819 422.003 225.917 423.792C219.505 425.117 212.915 425.322 206.432 424.395L205.195 425.133C202.21 427.583 191.414 433.446 187.519 435.459C157.548 450.95 117.96 465.78 83.9512 462.362C83.0227 462.265 82.1003 462.119 81.1859 461.93C80.6586 462.033 79.307 462.455 78.9116 462.381C75.0361 462.697 67.6136 463.174 64.1802 464.751C60.5907 461.621 58.8072 461.229 55.2479 456.725C46.4434 445.599 47.8744 430.771 41.8938 417.864C35.6338 404.356 25.107 393.784 20.6881 379.53C18.0476 371.016 18.8273 365.357 19.7326 356.932C23.0426 352.947 28.359 348.661 32.5296 343.608C32.6988 343.289 34.2191 341.682 34.5637 341.305C35.2593 339.788 43.972 327.897 45.443 325.83L61.4076 303.22C63.5583 300.23 67.6371 294.199 70.2426 291.987C70.6507 291.027 70.9728 289.971 71.7215 289.302Z" fill="black"/>
<path d="M70.2429 291.987C76.817 286.786 83.2929 282.63 90.9918 279.305C106.7 272.519 164.293 257.08 180.54 258.953C185.019 259.469 187.859 262.948 190.484 266.318C193.415 270.078 196.084 274.222 198.432 278.369C202.841 286.154 224.505 328.708 223.706 335.628C223.389 338.359 221.851 340.733 219.687 342.381C216.188 345.042 211.73 345.726 207.461 345.129C204.579 344.748 201.794 343.844 199.24 342.461C189.143 336.997 170.509 317.409 165.75 306.986C164.125 310.793 162.888 314.657 161.312 318.441C158.675 324.635 155.506 330.59 151.841 336.238C147.9 342.269 141.166 350.742 135.936 355.692C117.28 373.35 96.4402 390.469 72.7861 400.959C55.0599 408.821 40.5862 396.987 34.2886 380.885C29.2431 367.985 30.9844 354.418 34.564 341.304C35.2596 339.788 43.9723 327.897 45.4433 325.83L61.4079 303.22C63.5586 300.23 67.6374 294.199 70.2429 291.987Z" fill="black"/>
<path d="M209.575 304.478C209.843 304.747 209.724 304.625 209.802 305.131C208.661 306.216 200.355 306.995 198.301 307.22C200.887 312.795 204.299 318.248 207.306 323.61C208.25 325.293 211.237 330.125 211.716 331.775L211.076 332.021C207.144 326.442 198.911 312.361 196.463 306.327C199.881 305.631 205.923 304.988 209.575 304.478Z" fill="white"/>
<path d="M205.195 425.133C196.685 423.194 190.526 412.667 192.523 404.382C192.865 402.956 193.208 400.885 194.438 400.052C194.555 400.123 194.672 400.195 194.786 400.265C194.444 401.321 193.867 404.024 193.719 404.893C193.098 408.347 193.481 411.792 195.045 414.95C196.258 417.395 197.734 419.297 199.836 421.035C201.931 422.767 203.889 423.522 206.432 424.395L205.195 425.133Z" fill="white"/>
<path d="M257.743 354.873C258.768 356.522 257.365 360.131 256.743 361.843C252.061 374.752 244.424 385.018 231.675 390.802C228.341 392.333 224.883 393.583 221.34 394.54C211.873 397.017 194.184 399.395 184.7 396.262C174.677 392.951 168.373 378.729 172.235 368.617C172.87 367.675 172.913 367.501 173.8 367.27C173.913 368.051 173.973 367.731 173.633 368.52C171.296 373.933 171.727 377.988 173.923 383.381C175.887 388.202 179.615 392.974 184.559 395.012C187.616 396.273 192.756 396.369 196.121 396.351C208.144 396.284 220.303 394.733 231.313 389.699C242.238 384.708 249.472 376.277 253.98 365.291C255.405 361.817 256.436 358.38 257.743 354.873Z" fill="white"/>
<path d="M182.991 338.485C183.699 339.084 187.464 356.145 188.044 358.247C188.18 358.741 188.12 360.643 188.066 361.306C185.961 356.46 184.195 346.607 182.426 340.877L182.118 340.171C180.307 339.349 165.785 341.762 160.433 340.947C164.149 339.925 178.615 338.729 182.991 338.485Z" fill="white"/>
<path d="M198.732 375.713C199.943 376.779 203.96 392.389 204.07 394.61C201.973 390.957 199.631 381.557 198.07 376.937L194.877 377.042C190.532 377.415 178.423 377.747 174.592 377.123C179.392 375.916 193.072 375.876 198.732 375.713Z" fill="white"/>
<path d="M213.541 405.352C218.504 407.444 222.072 417.828 217.645 421.212L217.264 421.142C219.151 415.07 218.446 411.263 213.973 406.589C211.054 406.54 199.05 409.499 197.927 409.1C200.191 407.081 210.182 405.755 213.541 405.352Z" fill="white"/>
<path d="M18.6507 357.626L19.7328 356.932C18.8275 365.357 18.0478 371.016 20.6883 379.53C25.1072 393.784 35.634 404.356 41.894 417.864C47.8746 430.771 46.4436 445.599 55.2481 456.725C58.8074 461.229 60.5909 461.621 64.1804 464.752L63.2995 464.934C35.7055 473.848 -51.5955 553.311 -51.5955 553.311L-101.814 420.193C-77.7589 408.727 -53.687 397.21 -29.7589 385.641C-17.0813 379.511 9.02926 366.295 18.6507 357.626Z" fill="black"/>
<path d="M72.7266 289.759C79.4205 285.412 84.8963 281.43 92.3917 278.266C107.358 271.949 168.631 255.536 182.296 258.409C188.594 259.733 193.171 266.613 196.447 271.736C205.143 285.336 211.981 300.562 218.581 315.278C221.147 321.001 224.432 327.374 225.752 333.492C226.014 334.705 226.047 335.851 225.79 337.066C225.136 340.185 222.947 342.733 220.303 344.404C216.063 347.089 211.178 347.692 206.337 346.524C197.795 344.462 190.663 337.923 184.609 331.871C182.419 329.682 179.448 325.596 176.963 323.729M176.963 323.729C160.346 325.625 149.792 343.218 160.198 357.608C164.288 363.262 170.873 364.244 177.386 364.325C190.313 364.487 203.77 363.604 215.732 358.259C227.109 352.877 235.421 340.244 241.116 329.528C241.856 328.124 245.24 322.103 244.149 320.878M176.963 323.729C172.559 319.087 170.062 315.707 166.699 310.259C158.061 339.032 136.633 360.488 113.337 378.076C104.186 384.985 79.2566 399.068 69.0964 404.438" stroke="white" stroke-width="2"/>
</g>
<path d="M302.882 146.299C305.549 141.5 312.451 141.5 315.118 146.299L328.9 171.094C331.345 175.492 335.613 178.581 340.555 179.529L368.422 184.877C373.841 185.917 375.983 192.528 372.202 196.548L352.898 217.074C349.431 220.762 347.786 225.803 348.413 230.826L351.903 258.781C352.585 264.24 346.993 268.315 342.005 265.995L316.17 253.978C311.624 251.863 306.376 251.863 301.83 253.978L275.995 265.995C271.007 268.315 265.415 264.24 266.097 258.781L269.587 230.826C270.214 225.803 268.569 220.762 265.102 217.074L245.798 196.548C242.017 192.528 244.159 185.917 249.578 184.877L277.445 179.529C282.387 178.581 286.655 175.492 289.1 171.094L302.882 146.299Z" fill="white" stroke="white" stroke-width="10"/>
<defs>
<clipPath id="clip0_1084_5266">
<rect width="417.918" height="633.998" fill="white" transform="translate(16.2358) rotate(25.3292)"/>
</clipPath>
</defs>
</svg>
