<svg width="425" height="706" viewBox="0 0 425 706" fill="none" xmlns="http://www.w3.org/2000/svg">
<g clip-path="url(#clip0_1082_5112)">
<path d="M267.645 362.653C265.621 364.082 262.864 379.154 262.386 382.268C265.818 375.915 266.158 368.571 268.508 363.892L271.928 364.285C278.479 364.26 285.587 364.474 292.059 363.904C287.055 361.979 273.494 362.601 267.645 362.653Z" fill="white"/>
<path d="M252.709 393.185C248.791 395.751 244.24 407.885 249.59 409.242C250.563 407.471 246.094 401.813 252.961 394.745C255.98 394.369 265.796 396.594 269.764 396.986C265.586 394.098 257.828 393.475 252.709 393.185Z" fill="white"/>
<path d="M157.979 220.766C149.627 216.696 143.484 192.288 152.91 189.817L160.025 187.192L168.615 184.482C176.725 183.569 226.019 181.839 234.634 182.122C244.497 182.767 254.983 182.378 264.766 183.484C277.516 184.925 291.689 195.396 302.445 202.254C319.179 212.788 335.526 223.924 351.455 235.641C362.993 244.139 379.715 256.959 388.505 268.277L395.545 274.999C397.525 276.671 403.629 284.827 405.477 287.236L425.986 314.455C428.509 317.741 432.117 323.092 434.861 325.849C440.281 331.295 447.313 338.596 453.576 342.739C464.121 349.718 476.111 355.668 487.536 361.078C502.094 367.835 516.723 374.429 531.424 380.864L558.344 392.853C562.328 394.63 568.815 397.762 572.632 399.132C570.141 407.289 566.92 415.94 564.135 424.097L534.617 509.733C531.736 518.215 528.994 526.705 525.809 535.089C517.512 528.572 509.448 521.298 501.207 514.623C481.568 498.718 461.862 482.924 441.091 468.5C431.667 461.964 420.886 454.704 410.291 450.333C395.724 444.326 382.634 448.519 367.885 447.888C338.271 446.615 308.71 436.226 282.062 423.653C276.364 420.964 267.508 416.512 262.42 413.007C262.229 412.945 261.442 412.345 261.222 412.188C255.401 413.599 248.74 413.029 242.852 412.496C215.843 410.05 175.091 363.547 205.39 341.658L206.376 340.932C204.983 335.937 204.18 330.972 204.134 326.478C204.057 318.768 207.295 312.58 212.692 307.267C213.323 306.645 214.997 305.16 215.892 305.184L217.447 304.393C214.018 296.832 211.872 288.836 216.88 281.035L217.625 279.502C214.176 277.026 211.065 274.077 208.436 270.595C207.028 268.73 205.741 266.242 204.592 264.18L202.734 258.518C201.72 250.225 201.85 245.786 207.052 239.012C207.402 233.211 235.415 242.597 244.376 242.453C249.532 242.37 254.904 242.413 260.011 241.927C262.26 241.712 264.473 241.515 266.672 241.368L265.651 239.362C260.662 236.761 245.94 224.749 241.59 221.432C241.59 221.432 170.502 224.078 165.943 223.563C163.167 222.738 160.599 222.042 157.979 220.766Z" fill="black"/>
<path d="M390.277 381.895C385.194 379.255 380.142 376.559 375.122 373.807C369.277 370.571 362.672 367.037 357.198 363.267C339.185 350.858 322.116 336.105 310.157 317.598C307.15 312.943 304.919 307.822 302.399 302.904C301.051 300.277 298.015 298.298 295.59 296.813C282.95 288.894 268.66 290.732 254.544 290.154C241.983 289.64 228.606 286.47 218.268 279.049C214.819 276.573 211.708 273.624 209.078 270.142C207.671 268.277 206.384 265.788 205.235 263.727L203.377 258.065C202.363 249.772 202.492 245.333 207.694 238.559C208.045 232.758 236.058 242.144 245.019 242C250.175 241.917 255.546 241.96 260.653 241.473C262.903 241.259 265.115 241.062 267.315 240.915L323.515 250.732L413.777 301.828" stroke="white" stroke-width="2"/>
<path d="M278.252 317.433C276.687 320.691 275.172 331.433 273.977 335.352C273.704 336.246 273.511 339.06 274.081 339.918C275.268 337.803 278.109 323.459 278.723 320.305L279.065 319.39C280.485 318.338 293.266 319.772 296.1 319.61C297.836 319.511 299.695 319.479 301.684 319.254C293.383 318.062 286.696 317.607 278.252 317.433Z" fill="white"/>
<path d="M264.602 356.283C263.361 358.924 262.204 367.649 261.264 370.829C261.05 371.554 260.911 373.841 261.374 374.542C262.317 372.83 264.521 361.182 264.998 358.621L265.268 357.88C266.404 357.032 276.699 358.271 278.978 358.156C280.375 358.085 281.871 358.07 283.469 357.898C276.783 356.881 271.399 356.473 264.602 356.283Z" fill="white"/>
<path d="M263.437 408.431C271.404 405.927 276.469 395.417 273.929 387.669C273.492 386.336 273.006 384.387 271.769 383.687C271.663 383.764 271.557 383.841 271.454 383.917C271.861 384.897 272.619 387.431 272.827 388.248C273.684 391.494 273.583 394.809 272.335 397.94C271.366 400.365 270.104 402.293 268.233 404.111C266.368 405.924 264.559 406.794 262.201 407.822L263.437 408.431Z" fill="white"/>
<path d="M206.345 343.365C205.494 345.015 207.109 348.35 207.834 349.934C213.29 361.885 221.361 371.089 233.962 375.625C237.259 376.829 240.653 377.755 244.104 378.396C253.323 380.031 270.374 380.941 279.177 377.225C288.48 373.298 293.4 359.251 288.94 349.906C288.263 349.056 288.208 348.894 287.345 348.741C287.297 349.494 287.215 349.194 287.6 349.92C290.245 354.903 290.145 358.803 288.464 364.114C286.962 368.862 283.773 373.699 279.216 376.022C276.397 377.46 271.503 377.946 268.292 378.187C256.822 379.045 245.108 378.501 234.222 374.546C223.421 370.625 215.875 363.14 210.733 353.01C209.107 349.807 207.86 346.608 206.345 343.365Z" fill="white"/>
<path d="M283.039 303.351C299.031 303.883 310.446 319.849 301.627 334.37C298.161 340.076 291.958 341.519 285.753 342.096C273.438 343.242 260.538 343.434 248.72 339.255C237.458 334.996 228.562 323.587 222.308 313.806C221.495 312.525 217.805 307.042 218.752 305.79" stroke="white" stroke-width="2"/>
<path d="M250.014 394.05C246.691 397.987 248.154 408.39 253.398 409.354L253.692 409.128C249.448 404.771 248.397 401.219 250.182 395.292C252.649 393.984 264.169 391.297 264.953 390.47C262.147 389.731 253.052 392.936 250.014 394.05Z" fill="white"/>
<path fill-rule="evenodd" clip-rule="evenodd" d="M190.422 80.1926C156.967 75.6679 126.094 99.7509 121.464 133.984C118.982 152.337 124.553 169.888 135.397 182.903C139.012 187.241 141.689 190.455 143.58 192.78C144.526 193.942 145.247 194.848 145.776 195.539C146.039 195.884 146.239 196.157 146.388 196.366C146.461 196.47 146.516 196.55 146.556 196.611C146.595 196.669 146.613 196.699 146.613 196.699C148.197 199.37 148.526 200.048 148.696 200.645C148.866 201.242 148.945 201.997 149.012 205.127C149.039 206.363 148.778 208.438 148.015 214.08L147.982 214.322C147.535 217.626 147.149 220.477 147.04 222.844C146.925 225.346 147.079 227.861 148.069 230.345C149.171 233.111 150.968 235.527 153.279 237.35C155.354 238.988 157.68 239.808 160.067 240.359C162.324 240.88 165.109 241.257 168.338 241.693L168.812 241.757C172.041 242.194 174.826 242.571 177.141 242.668C179.588 242.771 182.048 242.598 184.484 241.571C187.196 240.427 189.57 238.575 191.368 236.201C192.983 234.069 193.798 231.686 194.352 229.242C194.876 226.931 195.261 224.081 195.707 220.777L195.74 220.535C196.503 214.893 196.803 212.823 197.157 211.638C198.054 208.638 198.329 207.932 198.652 207.402C198.974 206.871 199.472 206.305 201.709 204.15C201.709 204.15 201.718 204.142 201.739 204.123C201.739 204.123 201.767 204.098 201.787 204.08C201.841 204.033 201.916 203.97 202.014 203.889C202.213 203.727 202.478 203.518 202.824 203.255C203.518 202.729 204.453 202.047 205.673 201.178C208.114 199.439 211.549 197.051 216.186 193.83C230.098 184.162 240.131 168.722 242.614 150.369C247.243 116.136 223.876 84.7172 190.422 80.1926Z" fill="white"/>
</g>
<defs>
<clipPath id="clip0_1082_5112">
<rect width="476.818" height="606.536" fill="white" transform="matrix(-0.891195 0.45362 0.45362 0.891195 424.938 -51)"/>
</clipPath>
</defs>
</svg>
