<svg width="32" height="32" viewBox="0 0 32 32" fill="none" xmlns="http://www.w3.org/2000/svg">
<circle cx="16" cy="16" r="13" fill="#0C0F19"/>
<path d="M12.4515 21V10.8182H16.2697C17.0519 10.8182 17.7082 10.9541 18.2385 11.2259C18.7721 11.4976 19.1748 11.8788 19.4466 12.3693C19.7217 12.8565 19.8592 13.425 19.8592 14.0746C19.8592 14.7275 19.72 15.2943 19.4416 15.7749C19.1665 16.2521 18.7605 16.6217 18.2235 16.8835C17.6866 17.142 17.027 17.2713 16.2449 17.2713H13.5254V15.7401H15.9963C16.4537 15.7401 16.8282 15.6771 17.1199 15.5511C17.4115 15.4219 17.627 15.2346 17.7662 14.9893C17.9087 14.7408 17.9799 14.4358 17.9799 14.0746C17.9799 13.7133 17.9087 13.4051 17.7662 13.1499C17.6236 12.8913 17.4065 12.6958 17.1149 12.5632C16.8232 12.4273 16.447 12.3594 15.9863 12.3594H14.296V21H12.4515ZM17.7115 16.3864L20.2321 21H18.1738L15.698 16.3864H17.7115Z" fill="white"/>
<circle cx="7" cy="7" r="5" fill="#0C0F19"/>
</svg>
