<svg width="260" height="225" viewBox="0 0 260 225" fill="none" xmlns="http://www.w3.org/2000/svg">
<path d="M0 0H200V100V200H0V0Z" fill="black"/>
<path d="M0 0H200V100V200H0V0Z" fill="white"/>
<path d="M260 225V25L200 0V100V200L260 225Z" fill="black"/>
<path d="M260 225V25L200 0V100V200L260 225Z" fill="#1B84F3"/>
<path d="M200 200H0L60 225H260L200 200Z" fill="black"/>
<path d="M55 188V11H111.535C122.357 11 131.593 13.3911 139.243 18.1733C146.939 22.8979 152.793 29.6104 156.805 38.3106C160.863 46.9531 162.892 57.1226 162.892 68.8189C162.892 80.5728 160.84 90.6846 156.735 99.1543C152.63 107.566 146.683 114.02 138.893 118.514C131.15 123.008 121.774 125.255 110.765 125.255H72.9121V95.1787H105.867C111.652 95.1787 116.456 94.1992 120.281 92.2402C124.106 90.2813 126.951 87.3428 128.817 83.4248C130.73 79.5068 131.686 74.6382 131.686 68.8189C131.686 62.9419 130.73 57.9868 128.817 53.9536C126.951 49.9204 124.083 46.8667 120.211 44.7925C116.386 42.6606 111.558 41.5947 105.728 41.5947H85.2966V188H55ZM132.386 107.451L168 188H134.555L99.7102 107.451H132.386Z" fill="black"/>
</svg>
