<svg width="206" height="362" viewBox="0 0 206 362" fill="none" xmlns="http://www.w3.org/2000/svg">
<path d="M102.599 0C159.171 6.70407e-06 205.197 54.1299 205.197 120.665C205.197 193.042 102.662 361.895 102.599 361.999C102.542 361.905 0 193.045 0 120.665C4.56674e-05 54.1299 46.0265 0 102.599 0ZM48.0322 149.616C48.0323 170.723 64.2324 194.003 103.245 194.003C140.666 194.003 160.57 170.723 160.57 149.616H48.0322ZM64.2324 92.0908C53.2394 92.0908 44.3281 101.003 44.3281 111.996C44.3284 122.989 53.2396 131.9 64.2324 131.9C75.2253 131.9 84.1365 122.989 84.1367 111.996C84.1367 101.003 75.2254 92.0908 64.2324 92.0908ZM140.666 92.0908C129.673 92.0909 120.762 101.003 120.762 111.996C120.762 122.989 129.673 131.9 140.666 131.9C151.659 131.9 160.57 122.989 160.57 111.996C160.57 101.003 151.659 92.0908 140.666 92.0908Z" fill="white"/>
</svg>
